<?xml version="1.0"?>
<svg xmlns="http://www.w3.org/2000/svg" xmlns:xlink="http://www.w3.org/1999/xlink" id="Layer_1" data-name="Layer 1" viewBox="0 0 512 512" width="512" height="512"><defs><linearGradient id="linear-gradient" x1="256" y1="484" x2="256" y2="38.952" gradientUnits="userSpaceOnUse"><stop offset="0.322" stop-color="#a163f5"/><stop offset="0.466" stop-color="#b074ee"/><stop offset="0.752" stop-color="#d8a1dd"/><stop offset="0.898" stop-color="#efbad3"/></linearGradient><linearGradient id="linear-gradient-2" x1="213.895" y1="484" x2="213.895" y2="38.952" xlink:href="#linear-gradient"/><linearGradient id="linear-gradient-3" x1="389.946" y1="484" x2="389.946" y2="38.952" xlink:href="#linear-gradient"/><linearGradient id="linear-gradient-5" x1="378.946" y1="484" x2="378.946" y2="38.952" xlink:href="#linear-gradient"/><linearGradient id="linear-gradient-6" x1="400.946" y1="484" x2="400.946" y2="38.952" xlink:href="#linear-gradient"/><linearGradient id="linear-gradient-7" x1="356.946" y1="484" x2="356.946" y2="38.952" xlink:href="#linear-gradient"/><linearGradient id="linear-gradient-8" x1="422.946" y1="484" x2="422.946" y2="38.952" xlink:href="#linear-gradient"/></defs><title>Tv Ads</title><path d="M436,150.181H247.058A32.416,32.416,0,0,0,226.8,125.845l61.578-68.806a6,6,0,1,0-8.942-8l-64.658,72.247-70.6-62.064a6,6,0,1,0-7.923,9.012L202.417,126.4a32.415,32.415,0,0,0-18.91,23.786H76a26.03,26.03,0,0,0-26,26V406.858a26.03,26.03,0,0,0,26,26h9.559v26.105a6,6,0,0,0,6,6h42.1a6,6,0,0,0,6-6V432.858H372.336v26.105a6,6,0,0,0,6,6h42.1a6,6,0,0,0,6-6V432.858H436a26.03,26.03,0,0,0,26-26V176.181A26.03,26.03,0,0,0,436,150.181ZM215.283,135.716a20.344,20.344,0,0,1,19.448,14.465h-38.9A20.346,20.346,0,0,1,215.283,135.716ZM127.664,452.963H97.559V432.858h30.105Zm286.777,0h-30.1V432.858h30.1ZM450,406.858a14.015,14.015,0,0,1-14,14H76a14.015,14.015,0,0,1-14-14V176.181a14.015,14.015,0,0,1,14-14H436a14.015,14.015,0,0,1,14,14Z" style="fill:url(#linear-gradient)"/><path d="M319.491,192.424H108.3a16.019,16.019,0,0,0-16,16V374.615a16.019,16.019,0,0,0,16,16H319.491a16.018,16.018,0,0,0,16-16V208.424A16.018,16.018,0,0,0,319.491,192.424Zm4,182.191a4,4,0,0,1-4,4H108.3a4.005,4.005,0,0,1-4-4V208.424a4.005,4.005,0,0,1,4-4H319.491a4,4,0,0,1,4,4Z" style="fill:url(#linear-gradient-2)"/><path d="M389.946,192.424a21.79,21.79,0,1,0,21.789,21.79A21.815,21.815,0,0,0,389.946,192.424Zm0,31.579a9.79,9.79,0,1,1,9.789-9.789A9.8,9.8,0,0,1,389.946,224Z" style="fill:url(#linear-gradient-3)"/><path d="M389.946,253.626a21.79,21.79,0,1,0,21.789,21.79A21.815,21.815,0,0,0,389.946,253.626Zm0,31.579a9.79,9.79,0,1,1,9.789-9.789A9.8,9.8,0,0,1,389.946,285.205Z" style="fill:url(#linear-gradient-3)"/><path d="M378.946,362.62a6,6,0,0,0-6,6v16a6,6,0,0,0,12,0v-16A6,6,0,0,0,378.946,362.62Z" style="fill:url(#linear-gradient-5)"/><path d="M400.946,362.62a6,6,0,0,0-6,6v16a6,6,0,0,0,12,0v-16A6,6,0,0,0,400.946,362.62Z" style="fill:url(#linear-gradient-6)"/><path d="M356.946,362.62a6,6,0,0,0-6,6v16a6,6,0,0,0,12,0v-16A6,6,0,0,0,356.946,362.62Z" style="fill:url(#linear-gradient-7)"/><path d="M422.946,362.62a6,6,0,0,0-6,6v16a6,6,0,0,0,12,0v-16A6,6,0,0,0,422.946,362.62Z" style="fill:url(#linear-gradient-8)"/></svg>
