<svg id="Layer_1" height="512" viewBox="0 0 512 512" width="512" xmlns="http://www.w3.org/2000/svg" xmlns:xlink="http://www.w3.org/1999/xlink" data-name="Layer 1"><linearGradient id="linear-gradient" gradientUnits="userSpaceOnUse" x1="142.537" x2="142.537" y1="494.686" y2="104.462"><stop offset=".322" stop-color="#a163f5"/><stop offset=".466" stop-color="#b074ee"/><stop offset=".752" stop-color="#d8a1dd"/><stop offset=".898" stop-color="#efbad3"/></linearGradient><linearGradient id="linear-gradient-2" x1="122.809" x2="122.809" xlink:href="#linear-gradient" y1="494.686" y2="104.462"/><linearGradient id="linear-gradient-3" x1="122.92" x2="122.92" xlink:href="#linear-gradient" y1="494.686" y2="104.462"/><linearGradient id="linear-gradient-4" x1="108.344" x2="108.344" xlink:href="#linear-gradient" y1="494.686" y2="104.462"/><linearGradient id="linear-gradient-5" x1="331.196" x2="331.196" xlink:href="#linear-gradient" y1="494.686" y2="104.462"/><linearGradient id="linear-gradient-6" x1="278.539" x2="278.539" xlink:href="#linear-gradient" y1="494.686" y2="104.462"/><linearGradient id="linear-gradient-7" x1="225.882" x2="225.882" xlink:href="#linear-gradient" y1="494.686" y2="104.462"/><linearGradient id="linear-gradient-8" x1="296.877" x2="296.877" xlink:href="#linear-gradient" y1="494.686" y2="104.462"/><linearGradient id="linear-gradient-9" x1="171.24" x2="171.24" xlink:href="#linear-gradient" y1="494.686" y2="104.462"/><linearGradient id="linear-gradient-12" x1="213.295" x2="213.295" xlink:href="#linear-gradient" y1="494.686" y2="104.462"/><linearGradient id="linear-gradient-14" x1="256" x2="256" xlink:href="#linear-gradient" y1="494.686" y2="104.462"/><linearGradient id="linear-gradient-15" x1="383.089" x2="383.089" xlink:href="#linear-gradient" y1="494.686" y2="104.462"/><linearGradient id="linear-gradient-16" x1="383.356" x2="383.356" xlink:href="#linear-gradient" y1="494.686" y2="104.462"/><path d="m122.8 60.691a47.968 47.968 0 0 1 35.027 15.409 6 6 0 1 0 8.839-8.115 60 60 0 0 0 -43.809-19.291h-.03a6 6 0 0 0 -.029 12z" fill="url(#linear-gradient)"/><path d="m98.9 157.078a60.584 60.584 0 0 0 43.732 1.733 59.222 59.222 0 0 0 22.2-13.587 54.959 54.959 0 0 0 11.18-63.514 6 6 0 1 0 -10.8 5.227 42.979 42.979 0 0 1 -8.729 49.672 47.311 47.311 0 0 1 -17.741 10.85c-23.469 8.041-50.064-3.379-59.288-25.459a42.548 42.548 0 0 1 -1.844-27.912 45.576 45.576 0 0 1 29.779-30.888q.7-.234 1.4-.448a6 6 0 1 0 -3.527-11.47q-.841.258-1.688.542a57.549 57.549 0 0 0 -37.535 39.087 54.439 54.439 0 0 0 2.342 35.716 57.285 57.285 0 0 0 30.519 30.451z" fill="url(#linear-gradient-2)"/><path d="m112.427 76.133a31.4 31.4 0 0 0 -18.511 16.174 29.868 29.868 0 0 0 -1.171 23.365c4.623 12.689 17.027 20.66 30.229 20.66a32.78 32.78 0 0 0 10.44-1.709 31.389 31.389 0 0 0 18.511-16.174 29.872 29.872 0 0 0 1.17-23.365c-5.836-16.02-24.08-24.521-40.668-18.951zm28.685 37.111a19.484 19.484 0 0 1 -11.519 10c-10.473 3.516-21.945-1.724-25.573-11.683a17.965 17.965 0 0 1 .708-14.052 19.487 19.487 0 0 1 11.519-10 20.975 20.975 0 0 1 6.681-1.094 19.956 19.956 0 0 1 18.893 12.777 17.965 17.965 0 0 1 -.709 14.052z" fill="url(#linear-gradient-3)"/><path d="m109.309 255.885c12.559.489 15.555 10.057 15.867 11.2a6 6 0 0 0 11.633-2.944 27.413 27.413 0 0 0 -5.26-9.947 27.856 27.856 0 0 0 -17.206-9.815v-5.079a6 6 0 0 0 -12 0v5.115a23.732 23.732 0 0 0 -12.343 6.228c-7.133 6.966-7.551 16.507-7.509 19.266.166 11.055 8.754 20.362 20.883 22.632l1.1.206c.861.163 1.895.358 2.531.475.349.064 1.34.35 1.712.458a3.357 3.357 0 0 1 .365.128c.076.031.153.062.231.09l1.6.59c.119.044.235.094.35.15.738.361.968.489 1.456.762l.979.553.2.118c.961.559 9.4 5.671 9.71 12.695.175 4.029-.851 7.1-3.138 9.4-3.96 3.972-10.679 4.805-14.022 4.667-4.74-.192-14-4.116-14.788-10.93a6 6 0 1 0 -11.92 1.385c.749 6.442 4.6 12.24 10.855 16.325a33.959 33.959 0 0 0 11.747 4.767v4.165a6 6 0 0 0 12 0v-4.445a28.786 28.786 0 0 0 14.626-7.465c4.657-4.671 6.949-11.031 6.628-18.392-.556-12.761-12.088-20.46-15.678-22.553-.1-.061-.453-.27-.48-.285l-.852-.473c-.688-.386-1.012-.567-2.052-1.075a15.418 15.418 0 0 0 -1.477-.631l-1.5-.553a15.708 15.708 0 0 0 -1.509-.521c-1.021-.295-2.009-.573-2.877-.733-.624-.114-1.631-.305-2.47-.463l-1.116-.21c-7.569-1.417-11.025-6.554-11.093-11.018-.048-3.19.95-7.623 3.9-10.5 2.459-2.404 6.134-3.528 10.917-3.343z" fill="url(#linear-gradient-4)"/><path d="m344.338 140.875h-26.284a8.009 8.009 0 0 0 -8 8v78.969a8.009 8.009 0 0 0 8 8h26.284a8.009 8.009 0 0 0 8-8v-78.969a8.009 8.009 0 0 0 -8-8zm-4 82.969h-18.284v-70.969h18.284z" fill="url(#linear-gradient-5)"/><path d="m299.681 227.844v-106.344a8.009 8.009 0 0 0 -8-8h-26.281a8.009 8.009 0 0 0 -8 8v106.344a8.009 8.009 0 0 0 8 8h26.284a8.009 8.009 0 0 0 7.997-8zm-12-4h-18.281v-98.344h18.284z" fill="url(#linear-gradient-6)"/><path d="m212.74 235.844h26.284a8.009 8.009 0 0 0 8-8v-128.844a8.008 8.008 0 0 0 -8-8h-26.284a8.009 8.009 0 0 0 -8 8v128.844a8.009 8.009 0 0 0 8 8zm4-132.842h18.284v120.842h-18.284z" fill="url(#linear-gradient-7)"/><path d="m237.61 70.873q.195.012.387.012a6 6 0 0 0 5.982-5.618l.925-14.5 70.054 57.182.493.362a7.913 7.913 0 0 0 4.369 1.308h35.944a6 6 0 0 0 0-12h-34.484l-67.11-54.783 16.452.966a6 6 0 1 0 .7-11.979l-29.254-1.723a7.841 7.841 0 0 0 -8.309 7.04 5.988 5.988 0 0 0 -.152 2.22l-1.607 25.14a6 6 0 0 0 5.61 6.373z" fill="url(#linear-gradient-8)"/><g fill="url(#linear-gradient-9)"><path d="m262.35 378.452h-182.22a6 6 0 0 0 0 12h182.22a6 6 0 0 0 0-12z"/><path d="m262.35 446.548h-182.22a6 6 0 0 0 0 12h182.22a6 6 0 0 0 0-12z"/><path d="m262.35 412.5h-182.22a6 6 0 0 0 0 12h182.22a6 6 0 0 0 0-12z"/></g><path d="m262.35 344.4h-98.109a6 6 0 1 0 0 12h98.109a6 6 0 0 0 0-12z" fill="url(#linear-gradient-12)"/><path d="m262.35 310.355h-98.109a6 6 0 1 0 0 12h98.109a6 6 0 0 0 0-12z" fill="url(#linear-gradient-12)"/><path d="m470.446 259.528a16.731 16.731 0 0 0 -16.68-16.744h-61.166v-207.384c0-14.005-11.756-25.4-26.2-25.4h-299.195c-14.449 0-26.205 11.393-26.205 25.4v441.2c0 14 11.756 25.4 26.206 25.4l243.748-.037h144.131a15.914 15.914 0 0 0 15.915-16l-.554-103.77zm-403.241 230.472c-7.833 0-14.2-6.01-14.2-13.4v-441.2c-.005-7.39 6.367-13.4 14.2-13.4h299.195c7.832 0 14.2 6.01 14.2 13.4v207.384h-69.647a16.732 16.732 0 0 0 -16.68 16.744v225.691a16.725 16.725 0 0 0 .693 4.747zm390.656-1.191a3.886 3.886 0 0 1 -2.776 1.154h-144.132a4.718 4.718 0 0 1 -4.68-4.744v-225.691a4.719 4.719 0 0 1 4.68-4.744h142.813a4.718 4.718 0 0 1 4.68 4.744v122.7l.554 103.8a3.887 3.887 0 0 1 -1.139 2.781z" fill="url(#linear-gradient-14)"/><path d="m321.56 328.685h123.058a8.009 8.009 0 0 0 8-8v-49.1a8.009 8.009 0 0 0 -8-8h-123.058a8.009 8.009 0 0 0 -8 8v49.1a8.009 8.009 0 0 0 8 8zm4-53.1h115.058v41.1h-115.058z" fill="url(#linear-gradient-15)"/><path d="m446.164 343.868h-125.616a6.968 6.968 0 0 0 -6.988 6.931v120.57a6.959 6.959 0 0 0 6.952 6.93l41.316.247c.127.008.254.02.383.02.1 0 .2-.011.3-.016l82.6.494a7.93 7.93 0 0 0 8.042-7.778v-120.466a6.968 6.968 0 0 0 -6.989-6.932zm-77.953 83.879v-31.374h29.223v31.374zm29.223 12v27.012l-29.223-.175v-26.837zm-71.874-43.374h30.651v31.374h-30.651zm42.651-12v-28.5h29.223v28.5zm41.223 12h31.718v31.374h-31.718zm31.718-12h-31.718v-28.5h31.718zm-84.941-28.5v28.5h-30.651v-28.5zm-30.651 83.874h30.651v26.765l-30.651-.183zm83.874 27.083v-27.083h31.718v27.273z" fill="url(#linear-gradient-16)"/></svg>