<?xml version="1.0"?>
<svg xmlns="http://www.w3.org/2000/svg" xmlns:xlink="http://www.w3.org/1999/xlink" id="Layer_1" data-name="Layer 1" viewBox="0 0 512 512" width="512" height="512"><defs><linearGradient id="linear-gradient" x1="256" y1="484" x2="256" y2="38.952" gradientUnits="userSpaceOnUse"><stop offset="0.322" stop-color="#a163f5"/><stop offset="0.466" stop-color="#b074ee"/><stop offset="0.752" stop-color="#d8a1dd"/><stop offset="0.898" stop-color="#efbad3"/></linearGradient><linearGradient id="linear-gradient-2" x1="281.25" y1="484" x2="281.25" y2="38.952" xlink:href="#linear-gradient"/><linearGradient id="linear-gradient-3" x1="339" y1="484" x2="339" y2="38.952" xlink:href="#linear-gradient"/></defs><title>receive emails read</title><path d="M438.441,60H73.559A35.287,35.287,0,0,0,38.312,95.246V332.923a35.286,35.286,0,0,0,35.247,35.246H194.052V440H166.111a6,6,0,0,0,0,12H351.152a6,6,0,1,0,0-12h-33.2V368.169H438.441a35.286,35.286,0,0,0,35.247-35.246V95.246A35.287,35.287,0,0,0,438.441,60ZM73.559,72H438.441a23.272,23.272,0,0,1,23.247,23.246V300.221H50.312V95.246A23.272,23.272,0,0,1,73.559,72ZM305.948,440h-99.9V368.169h99.9Zm132.493-83.831H73.559a23.272,23.272,0,0,1-23.247-23.246v-20.7H461.688v20.7A23.272,23.272,0,0,1,438.441,356.169Z" style="fill:url(#linear-gradient)"/><path d="M173.911,255.5c.143.14.305.244.457.367a24.259,24.259,0,0,0,17.465,7.415H320.167a24.253,24.253,0,0,0,17.446-7.4,5.766,5.766,0,0,0,.478-.383,5.955,5.955,0,0,0,.883-1.131,24.224,24.224,0,0,0,5.526-15.423V191.041a56,56,0,1,0-49.6-90.248,55.323,55.323,0,0,0-11.514,27.921H191.833a24.368,24.368,0,0,0-24.1,20.982,6,6,0,0,0-.207,2.216c-.017.376-.029.755-.029,1.136v85.9a24.218,24.218,0,0,0,5.522,15.417A5.942,5.942,0,0,0,173.911,255.5Zm17.922-4.218a12.243,12.243,0,0,1-4.547-.88l36.174-37a6,6,0,1,0-8.58-8.388l-35.193,36a12.307,12.307,0,0,1-.187-2.063V164.294l61.982,52.483a22.428,22.428,0,0,0,29.093-.012l39.1-33.161.376-.328a55.181,55.181,0,0,0,22.449,7.657v48.019a12.427,12.427,0,0,1-.193,2.109l-35.436-36.054a6,6,0,0,0-8.559,8.411l36.367,37a12.245,12.245,0,0,1-4.512.867ZM304.347,108.2a44,44,0,1,1,8.859,62.771l-.034-.025a44.67,44.67,0,0,1-6.157-5.413,44.005,44.005,0,0,1-2.668-57.333ZM191.833,140.714h91.426a55.743,55.743,0,0,0,15.033,33.057q.99,1.047,2.024,2.037l-37.5,31.806a10.465,10.465,0,0,1-13.577,0l-69.085-58.5A12.348,12.348,0,0,1,191.833,140.714Z" style="fill:url(#linear-gradient-2)"/><path d="M325.289,152.253a6,6,0,0,0,8.349.758L365.7,126.924a6,6,0,0,0-7.572-9.309l-27.522,22.39-9.963-11.668a6,6,0,1,0-9.125,7.793Z" style="fill:url(#linear-gradient-3)"/></svg>
